<svg width="48" height="48" viewBox="0 0 48 48" fill="none" xmlns="http://www.w3.org/2000/svg">
<path d="M26.9023 8.19037V1.03125" stroke="#26AACC" stroke-width="2" stroke-miterlimit="10" stroke-linecap="round" stroke-linejoin="round"/>
<path d="M30.6523 24.8779H28.9648" stroke="#26AACC" stroke-width="2" stroke-miterlimit="10" stroke-linecap="round" stroke-linejoin="round"/>
<path d="M30.6523 20.7529H28.9648" stroke="#26AACC" stroke-width="2" stroke-miterlimit="10" stroke-linecap="round" stroke-linejoin="round"/>
<path d="M30.6523 16.6279H28.9648" stroke="#26AACC" stroke-width="2" stroke-miterlimit="10" stroke-linecap="round" stroke-linejoin="round"/>
<path d="M44.0585 14.9633V1.03125C40.3327 1.03125 37.3124 4.05159 37.3125 7.77731V13.3433C38.6032 13.9793 39.4207 15.2933 39.4207 16.7321V17.2487" stroke="#26AACC" stroke-width="2" stroke-miterlimit="10" stroke-linejoin="round"/>
<path d="M44.0585 20.4009L37.3125 23.7249" stroke="#26AACC" stroke-width="2" stroke-miterlimit="10" stroke-linejoin="round"/>
<path d="M44.0585 25.8389L37.3125 29.163" stroke="#26AACC" stroke-width="2" stroke-miterlimit="10" stroke-linejoin="round"/>
<path d="M16.1228 16.3707V12.1007C16.1228 10.2084 15.2329 8.42634 13.7204 7.28944L5.39462 1.03125L4.6284 1.93969C3.6264 3.12759 3.73224 4.89263 4.86896 5.95238L9.44799 10.2212C10.259 10.9773 10.7196 12.0363 10.7196 13.1452V16.3708" stroke="#26AACC" stroke-width="2" stroke-miterlimit="10" stroke-linejoin="round"/>
<path d="M16.5053 21.3438H10.3359" stroke="#26AACC" stroke-width="2" stroke-miterlimit="10" stroke-linejoin="round"/>
<path d="M16.5053 26.3164H10.3359" stroke="#26AACC" stroke-width="2" stroke-miterlimit="10" stroke-linejoin="round"/>
<path d="M16.5034 43.884L16.507 16.3706H10.3376L10.334 43.884C10.334 45.5876 11.7151 46.9686 13.4187 46.9686C15.1224 46.9687 16.5034 45.5876 16.5034 43.884Z" stroke="#3E3E40" stroke-width="2" stroke-miterlimit="10" stroke-linejoin="round"/>
<path d="M28.9648 37.2529H24.8398V46.9688H28.9648V37.2529Z" stroke="#3E3E40" stroke-width="2" stroke-miterlimit="10" stroke-linejoin="round"/>
<path d="M21.0898 37.2529H32.7148" stroke="#3E3E40" stroke-width="2" stroke-miterlimit="10" stroke-linecap="round" stroke-linejoin="round"/>
<path d="M23.0801 46.9688H30.7262" stroke="#3E3E40" stroke-width="2" stroke-miterlimit="10" stroke-linecap="round" stroke-linejoin="round"/>
<path d="M28.9648 12.5029V9.69043C28.9648 8.86196 28.2933 8.19043 27.4648 8.19043H26.3398C25.5114 8.19043 24.8398 8.86196 24.8398 9.69043V12.5029" stroke="#3E3E40" stroke-width="2" stroke-miterlimit="10" stroke-linejoin="round"/>
<path d="M23.1523 37.2529V15.0509C23.1523 13.6437 24.2931 12.5029 25.7003 12.5029H26.9023H28.1044C29.5116 12.5029 30.6523 13.6437 30.6523 15.0509V37.2529" stroke="#3E3E40" stroke-width="2" stroke-miterlimit="10" stroke-linejoin="round"/>
<path d="M23.1523 29.0029H26.9023H30.6523" stroke="#3E3E40" stroke-width="2" stroke-miterlimit="10" stroke-linejoin="round"/>
<path d="M30.6523 33.1279H23.1523" stroke="#3E3E40" stroke-width="2" stroke-miterlimit="10" stroke-linejoin="round"/>
<path d="M44.0547 43.5958L44.0587 14.9634L37.3126 18.2875L37.3086 43.5958C37.3086 45.4587 38.8187 46.9689 40.6816 46.9688C42.5445 46.9688 44.0547 45.4587 44.0547 43.5958Z" stroke="#3E3E40" stroke-width="2" stroke-miterlimit="10" stroke-linejoin="round"/>
</svg>
