<svg width="740" height="131" viewBox="0 0 740 131" fill="none" xmlns="http://www.w3.org/2000/svg">
<g opacity="0.3" clip-path="url(#clip0_93_3100)">
<path d="M406.415 101.616L394.361 77.8179L373.088 68.5093L382.472 89.6416L406.415 101.616Z" fill="white"/>
<path d="M370.048 130.977L379.144 91.0356L370.048 69.7529L360.953 91.0356L370.048 130.977Z" fill="white"/>
<path d="M370.048 0L360.953 39.941L370.048 61.21L379.144 39.941L370.048 0Z" fill="white"/>
<path d="M435.973 65.4884L395.766 56.4531L374.355 65.4884L395.766 74.5236L435.973 65.4884Z" fill="white"/>
<path d="M304.124 65.4884L344.331 74.5236L365.755 65.4884L344.331 56.4531L304.124 65.4884Z" fill="white"/>
<path d="M333.681 29.3613L345.734 53.1455L367.007 62.4678L357.637 41.3354L333.681 29.3613Z" fill="white"/>
<path d="M406.415 29.3613L382.472 41.3354L373.088 62.4678L394.361 53.1455L406.415 29.3613Z" fill="white"/>
<path d="M333.681 101.616L357.637 89.6416L367.007 68.5093L345.734 77.8179L333.681 101.616Z" fill="white"/>
<path d="M0 84.2012H10.6365C11.5309 88.917 13.9664 92.2659 22.6765 92.4163C29.4327 92.5393 33.5882 90.3522 33.5882 86.5796C33.5882 82.3559 28.7722 81.7134 20.2685 79.6904C6.02689 76.2185 0.01376 73.3616 0.01376 64.9142C0.01376 54.717 8.71009 48.8394 21.4794 48.8394C34.2487 48.8394 42.4634 54.9904 44.321 64.1897H33.7808C32.2948 60.048 27.7815 58.0386 21.3005 58.0386C14.8195 58.0386 10.5677 60.335 10.5677 63.8343C10.5677 67.0465 13.7187 67.8803 22.5939 69.9854C36.3815 73.1976 44.3348 75.5897 44.3348 85.4177C44.3348 96.2573 34.5239 101.629 22.4976 101.629C9.08161 101.629 0.701761 96.1616 0 84.2148V84.2012Z" fill="white"/>
<path d="M132.207 68.4413V101.616H121.529V70.6967C121.529 63.001 118.406 58.9686 111.237 58.9686C102.829 58.9686 98.4811 65.4477 98.4811 74.8247L98.5774 101.616H87.8033V70.6967C87.8033 63.001 84.6798 58.9686 77.5108 58.9686C69.1035 58.9686 64.8516 65.4477 64.8516 74.8247V101.616H54.1738V48.8398H64.8516V58.2168C68.443 52.3118 73.5479 48.8398 81.0059 48.8398C88.9454 48.8398 94.5182 52.6808 97.0638 59.6247C100.559 52.9679 106.421 48.8398 114.635 48.8398C125.588 48.8398 132.207 56.1528 132.207 68.4549V68.4413Z" fill="white"/>
<path d="M193.728 48.8257V101.616H183.27V92.0199C179.569 97.8155 173.459 101.616 165.506 101.616C151.911 101.616 142.004 90.6393 142.004 75.2069C142.004 59.7746 152.09 48.8394 165.41 48.8394C173.459 48.8394 179.569 52.7897 183.256 58.5854V48.8394H193.714L193.728 48.8257ZM183.367 75.2069C183.367 65.5566 176.61 58.8178 167.735 58.8178C158.86 58.8178 152.572 65.5703 152.572 75.2069C152.572 84.8436 158.956 91.6918 167.735 91.6918C176.514 91.6918 183.367 84.9393 183.367 75.2069Z" fill="white"/>
<path d="M236.796 49.1127V59.8976C235.846 59.8019 235.007 59.7062 233.59 59.7062C223.861 59.7062 216.403 65.1465 216.403 77.9134V101.616H205.726V48.8257H216.403V60.1847C219.527 52.9537 225.471 48.8257 233.686 48.8257C235.007 48.8257 236.053 48.9214 236.809 49.1127H236.796Z" fill="white"/>
<path d="M285.903 97.8564C283.069 99.5514 277.028 101.615 271.07 101.615C260.392 101.615 252.081 94.9586 252.081 80.6881V58.7766H242.449V48.8256H252.081V29.4019H262.759V48.8256H286.11V58.7766H262.759V80.114C262.759 87.6183 266.254 91.7464 272.955 91.7464C276.258 91.7464 279.945 90.6255 284.004 89.2176L285.89 97.8564H285.903Z" fill="white"/>
<path d="M488.353 101.616L464.645 77.7771V101.616H453.967V29.3613H464.645V72.3368L488.394 48.8261H502.086L475.419 74.4965L502.154 101.616H488.367H488.353Z" fill="white"/>
<path d="M739.999 48.8257V101.616H729.542V92.0199C725.84 97.8155 719.731 101.616 711.778 101.616C698.183 101.616 688.275 90.6393 688.275 75.2069C688.275 59.7746 698.361 48.8394 711.681 48.8394C719.731 48.8394 725.84 52.7897 729.528 58.5854V48.8394H739.986L739.999 48.8257ZM729.652 75.2069C729.652 65.5566 722.896 58.8178 714.02 58.8178C705.145 58.8178 698.857 65.5703 698.857 75.2069C698.857 84.8436 705.241 91.6918 714.02 91.6918C722.799 91.6918 729.652 84.9393 729.652 75.2069Z" fill="white"/>
<path d="M511.502 29.3613H522.276V101.616H511.502V29.3613Z" fill="white"/>
<path d="M546.548 35.8405C546.548 39.6815 543.617 42.4973 539.558 42.4973C535.499 42.4973 532.664 39.6815 532.664 35.8405C532.664 31.9995 535.691 29.3613 539.558 29.3613C543.424 29.3613 546.548 32.0815 546.548 35.8405ZM534.26 48.8261H544.938V101.616H534.26V48.8261Z" fill="white"/>
<path d="M603.679 69.0559V101.616H593.002V71.2156C593.002 63.2465 589.507 58.9681 581.663 58.9681C572.499 58.9681 567.587 64.9278 567.587 74.8789V101.616H556.909V48.8257H567.587V58.5444C571.275 52.5437 576.847 48.8257 584.966 48.8257C596.676 48.8257 603.666 56.4803 603.666 69.0559H603.679Z" fill="white"/>
<path d="M627.952 35.8405C627.952 39.6815 625.021 42.4973 620.962 42.4973C616.903 42.4973 614.068 39.6815 614.068 35.8405C614.068 31.9995 617.096 29.3613 620.962 29.3613C624.829 29.3613 627.952 32.0815 627.952 35.8405ZM615.678 48.8261H626.356V101.616H615.678V48.8261Z" fill="white"/>
<path d="M672.66 101.616L649.021 77.7771V101.616H638.343V29.3613H649.021V72.3368L672.77 48.8261H686.462L659.795 74.4965L686.462 101.616H672.674H672.66Z" fill="white"/>
</g>
<defs>
<clipPath id="clip0_93_3100">
<rect width="740" height="131" fill="white"/>
</clipPath>
</defs>
</svg>
