<svg width="60" height="60" viewBox="0 0 60 60" fill="none" xmlns="http://www.w3.org/2000/svg">
<g clip-path="url(#clip0_286_320727)">
<path d="M52.4709 15.7982C53.3909 14.2045 55.4474 13.6536 57.0409 14.5736C58.6344 15.4936 59.1855 17.5502 58.2655 19.1436L48.1334 36.6931C45.8924 40.5879 43.5007 42.2165 41.4336 42.9206L32.317 58.7109M7.09375 58.7109L22.2871 32.3952C20.1958 28.9547 18.9118 23.1639 17.5041 20.2754C16.1931 17.5855 17.3451 15.2535 19.1757 14.3549C20.7962 13.5594 22.8571 14.2854 24.1066 16.4506L26.5105 20.6165L36.5246 3.27153C37.4446 1.67802 39.5011 1.127 41.0946 2.04692C42.6882 2.96696 43.2392 5.02349 42.3191 6.617" stroke="#3E3E40" stroke-width="2" stroke-miterlimit="22.9256" stroke-linecap="round" stroke-linejoin="round"/>
<path d="M36.7246 16.3059L44.4303 2.95921C45.3503 1.3657 47.4068 0.814679 49.0004 1.73472C50.5939 2.65464 51.1449 4.71128 50.225 6.3048L42.5193 19.6515" stroke="#3E3E40" stroke-width="2" stroke-miterlimit="22.9256" stroke-linecap="round" stroke-linejoin="round"/>
<path d="M48.9227 8.56172C49.8427 6.9682 51.8992 6.41719 53.4926 7.33723C55.0861 8.25727 55.6371 10.3138 54.7171 11.9072L48.3145 22.9969" stroke="#3E3E40" stroke-width="2" stroke-miterlimit="22.9256" stroke-linecap="round" stroke-linejoin="round"/>
<path d="M28.8418 47.5841L28.8424 47.5832" stroke="#26AACC" stroke-width="2" stroke-miterlimit="22.9256" stroke-linecap="round" stroke-linejoin="round"/>
<path d="M35.3652 42.8839L35.3657 42.883" stroke="#26AACC" stroke-width="2" stroke-miterlimit="22.9256" stroke-linecap="round" stroke-linejoin="round"/>
<path d="M26.8711 36.2866L26.8717 36.2857" stroke="#26AACC" stroke-width="2" stroke-miterlimit="22.9256" stroke-linecap="round" stroke-linejoin="round"/>
<path d="M34.9355 34.4005L34.9361 34.3994" stroke="#26AACC" stroke-width="2" stroke-miterlimit="22.9256" stroke-linecap="round" stroke-linejoin="round"/>
<path d="M45.6289 29.7102L45.6295 29.7093" stroke="#26AACC" stroke-width="2" stroke-miterlimit="22.9256" stroke-linecap="round" stroke-linejoin="round"/>
<path d="M29.9434 25.9903L29.9439 25.9894" stroke="#26AACC" stroke-width="2" stroke-miterlimit="22.9256" stroke-linecap="round" stroke-linejoin="round"/>
<path d="M37.7051 24.2067L37.7057 24.2057" stroke="#26AACC" stroke-width="2" stroke-miterlimit="22.9256" stroke-linecap="round" stroke-linejoin="round"/>
<path d="M19.5117 52.1414L19.5123 52.1404" stroke="#26AACC" stroke-width="2" stroke-miterlimit="22.9256" stroke-linecap="round" stroke-linejoin="round"/>
<path d="M13.6601 36.8181L12.6877 33.1453L10.3707 34.4592L9.39844 30.7863" stroke="#26AACC" stroke-width="2" stroke-miterlimit="22.9256" stroke-linecap="round" stroke-linejoin="round"/>
<path d="M8.63941 45.4535L4.96664 46.4258L4.96195 43.7624L1.28906 44.7347" stroke="#26AACC" stroke-width="2" stroke-miterlimit="22.9256" stroke-linecap="round" stroke-linejoin="round"/>
<path d="M49.2051 44.0143L52.8749 43.031L52.8876 45.6946L56.5575 44.7112" stroke="#26AACC" stroke-width="2" stroke-miterlimit="22.9256" stroke-linecap="round" stroke-linejoin="round"/>
<path d="M41.916 52.6314L42.8993 56.3012L45.2123 54.9804L46.1957 58.6504" stroke="#26AACC" stroke-width="2" stroke-miterlimit="22.9256" stroke-linecap="round" stroke-linejoin="round"/>
</g>
<defs>
<clipPath id="clip0_286_320727">
<rect width="60" height="60" fill="white"/>
</clipPath>
</defs>
</svg>
