<svg width="60" height="60" viewBox="0 0 60 60" fill="none" xmlns="http://www.w3.org/2000/svg">
<g clip-path="url(#clip0_923_90373)">
<g clip-path="url(#clip1_923_90373)">
<path d="M25.6758 50.928L15.5671 40.8193" stroke="#26AACC" stroke-width="2" stroke-miterlimit="10" stroke-linecap="round" stroke-linejoin="round"/>
<path d="M41.0511 35.5527L30.9424 25.4438" stroke="#26AACC" stroke-width="2" stroke-miterlimit="10" stroke-linecap="round" stroke-linejoin="round"/>
<path d="M39.2339 17.1528L9.87838 46.5083C7.08709 49.2996 7.08709 53.8254 9.87838 56.6167C12.6697 59.4091 17.1955 59.4091 19.9867 56.6167L49.3422 27.2612" stroke="#3E3E40" stroke-width="2" stroke-miterlimit="10" stroke-linecap="round" stroke-linejoin="round"/>
<path d="M53.6565 17.8931L46.8152 24.7345" stroke="#26AACC" stroke-width="2" stroke-miterlimit="10" stroke-linecap="round" stroke-linejoin="round"/>
<path d="M41.7607 19.6797L48.6021 12.8384" stroke="#26AACC" stroke-width="2" stroke-miterlimit="10" stroke-linecap="round" stroke-linejoin="round"/>
<path d="M43.5473 7.78422L36.7061 14.6255L51.869 29.7885L58.7103 22.9472L43.5473 7.78422Z" stroke="#26AACC" stroke-width="2" stroke-miterlimit="10" stroke-linecap="round" stroke-linejoin="round"/>
<path d="M11.5725 22.3359V16.1279" stroke="#3E3E40" stroke-width="2" stroke-miterlimit="10" stroke-linecap="round" stroke-linejoin="round"/>
<path d="M14.6768 19.2319H8.46875" stroke="#3E3E40" stroke-width="2" stroke-miterlimit="10" stroke-linecap="round" stroke-linejoin="round"/>
<path d="M1.29096 19.8754C1.12771 8.73773 11.5726 1.28906 11.5726 1.28906C11.5726 1.28906 22.0176 8.73773 21.8543 19.8754C21.6607 33.093 1.48467 33.093 1.29096 19.8754Z" stroke="#3E3E40" stroke-width="2" stroke-miterlimit="10" stroke-linecap="round" stroke-linejoin="round"/>
</g>
</g>
<defs>
<clipPath id="clip0_923_90373">
<rect width="60" height="60" fill="white"/>
</clipPath>
<clipPath id="clip1_923_90373">
<rect width="60" height="60" fill="white"/>
</clipPath>
</defs>
</svg>
