<svg width="60" height="60" viewBox="0 0 60 60" fill="none" xmlns="http://www.w3.org/2000/svg">
<path d="M33.627 10.238V1.28906" stroke="#26AACC" stroke-width="2" stroke-miterlimit="10" stroke-linecap="round" stroke-linejoin="round"/>
<path d="M38.3145 31.0972H36.2051" stroke="#26AACC" stroke-width="2" stroke-miterlimit="10" stroke-linecap="round" stroke-linejoin="round"/>
<path d="M38.3145 25.9409H36.2051" stroke="#26AACC" stroke-width="2" stroke-miterlimit="10" stroke-linecap="round" stroke-linejoin="round"/>
<path d="M38.3145 20.7847H36.2051" stroke="#26AACC" stroke-width="2" stroke-miterlimit="10" stroke-linecap="round" stroke-linejoin="round"/>
<path d="M55.0731 18.7042V1.28906C50.4159 1.28906 46.6405 5.06449 46.6406 9.72164V16.6791C48.2541 17.4741 49.2758 19.1166 49.2758 20.9152V21.5609" stroke="#26AACC" stroke-width="2" stroke-miterlimit="10" stroke-linejoin="round"/>
<path d="M55.0731 25.5015L46.6406 29.6565" stroke="#26AACC" stroke-width="2" stroke-miterlimit="10" stroke-linejoin="round"/>
<path d="M55.0731 32.2983L46.6406 36.4535" stroke="#26AACC" stroke-width="2" stroke-miterlimit="10" stroke-linejoin="round"/>
<path d="M20.1545 20.4634V15.1259C20.1545 12.7605 19.0421 10.5329 17.1514 9.1118L6.74425 1.28906L5.78648 2.42461C4.53398 3.90949 4.66628 6.11578 6.08718 7.44047L11.811 12.7765C12.8248 13.7216 13.4005 15.0454 13.4005 16.4314V20.4635" stroke="#26AACC" stroke-width="2" stroke-miterlimit="10" stroke-linejoin="round"/>
<path d="M20.6317 26.6797H12.9199" stroke="#26AACC" stroke-width="2" stroke-miterlimit="10" stroke-linejoin="round"/>
<path d="M20.6317 32.8955H12.9199" stroke="#26AACC" stroke-width="2" stroke-miterlimit="10" stroke-linejoin="round"/>
<path d="M20.6278 54.8551L20.6323 20.4634H12.9206L12.916 54.8551C12.916 56.9846 14.6424 58.7109 16.772 58.7109C18.9015 58.711 20.6278 56.9846 20.6278 54.8551Z" stroke="#3E3E40" stroke-width="2" stroke-miterlimit="10" stroke-linejoin="round"/>
<path d="M36.2051 46.5664H31.0488V58.7112H36.2051V46.5664Z" stroke="#3E3E40" stroke-width="2" stroke-miterlimit="10" stroke-linejoin="round"/>
<path d="M26.3613 46.5664H40.8926" stroke="#3E3E40" stroke-width="2" stroke-miterlimit="10" stroke-linecap="round" stroke-linejoin="round"/>
<path d="M28.8496 58.7109H38.4073" stroke="#3E3E40" stroke-width="2" stroke-miterlimit="10" stroke-linecap="round" stroke-linejoin="round"/>
<path d="M36.2051 15.6284V12.1128C36.2051 11.0772 35.3657 10.2378 34.3301 10.2378H32.9238C31.8882 10.2378 31.0488 11.0772 31.0488 12.1128V15.6284" stroke="#3E3E40" stroke-width="2" stroke-miterlimit="10" stroke-linejoin="round"/>
<path d="M28.9395 46.5659V18.8133C28.9395 17.0544 30.3654 15.6284 32.1244 15.6284H33.627H35.1295C36.8885 15.6284 38.3145 17.0544 38.3145 18.8133V46.5659" stroke="#3E3E40" stroke-width="2" stroke-miterlimit="10" stroke-linejoin="round"/>
<path d="M28.9395 36.2539H33.627H38.3145" stroke="#3E3E40" stroke-width="2" stroke-miterlimit="10" stroke-linejoin="round"/>
<path d="M38.3145 41.4102H28.9395" stroke="#3E3E40" stroke-width="2" stroke-miterlimit="10" stroke-linejoin="round"/>
<path d="M55.0673 54.4946L55.0724 18.7041L46.6398 22.8592L46.6348 54.4947C46.6348 56.8232 48.5224 58.711 50.8511 58.7109C53.1797 58.7109 55.0673 56.8232 55.0673 54.4946Z" stroke="#3E3E40" stroke-width="2" stroke-miterlimit="10" stroke-linejoin="round"/>
</svg>
