<svg width="60" height="60" viewBox="0 0 60 60" fill="none" xmlns="http://www.w3.org/2000/svg">
<g clip-path="url(#clip0_730_148052)">
<path d="M21.7193 10.4443C21.5122 9.56461 21.3209 8.65828 21.1656 7.76602C20.7699 5.49164 21.9259 4.31355 21.2044 2.72602C19.5188 -0.983672 14.4516 1.47164 15.1869 5.01574L16.5482 10.1" stroke="#3E3E40" stroke-width="2" stroke-miterlimit="10" stroke-linecap="round" stroke-linejoin="round"/>
<path d="M15.1873 5.01566C14.9016 3.98488 13.8319 3.39285 12.7982 3.69332C11.7643 3.99391 11.158 5.07309 11.4437 6.10398L12.9379 11.0811" stroke="#3E3E40" stroke-width="2" stroke-miterlimit="10" stroke-linecap="round" stroke-linejoin="round"/>
<path d="M11.8153 7.3425C11.537 6.3382 10.4719 5.75508 9.46465 6.04793C8.45754 6.34066 7.86668 7.39219 8.145 8.39648L9.5018 13.1777" stroke="#3E3E40" stroke-width="2" stroke-miterlimit="10" stroke-linecap="round" stroke-linejoin="round"/>
<path d="M8.80371 10.7203C8.53395 9.74695 7.55906 9.18715 6.58301 9.47086C5.60684 9.75469 5.03426 10.7738 5.30402 11.747L6.61336 16.4355" stroke="#3E3E40" stroke-width="2" stroke-miterlimit="10" stroke-linecap="round" stroke-linejoin="round"/>
<path d="M5.95463 14.0721C5.69318 13.1288 4.71431 12.5871 3.76826 12.862C2.82232 13.1371 2.26732 14.1247 2.52877 15.0681C2.52877 15.0681 2.93283 17.0674 3.49428 17.6157L4.73693 19.1123C4.84791 19.246 4.94541 19.3897 5.03013 19.5405" stroke="#3E3E40" stroke-width="2" stroke-miterlimit="10" stroke-linecap="round" stroke-linejoin="round"/>
<path d="M43.8047 19.3179L45.5258 14.344C46.5127 10.8614 41.634 8.05029 39.6874 11.6298C38.8543 13.1618 39.9232 14.4196 39.3659 16.6597C39.1472 17.5386 38.8915 18.429 38.6221 19.2916" stroke="#3E3E40" stroke-width="2" stroke-miterlimit="10" stroke-linecap="round" stroke-linejoin="round"/>
<path d="M47.3364 20.5547L49.1826 15.697C49.5412 14.6893 49.0136 13.5695 48.0039 13.1959C46.9944 12.8222 45.8851 13.3362 45.5264 14.3439" stroke="#3E3E40" stroke-width="2" stroke-miterlimit="10" stroke-linecap="round" stroke-linejoin="round"/>
<path d="M50.6134 22.8911L52.3084 18.2191C52.6578 17.2373 52.1437 16.1462 51.1602 15.7822C50.1765 15.4181 49.0724 15.9236 48.7229 16.9054" stroke="#3E3E40" stroke-width="2" stroke-miterlimit="10" stroke-linecap="round" stroke-linejoin="round"/>
<path d="M53.2606 26.3472L54.9017 21.7643C55.2404 20.8128 54.7421 19.7554 53.7887 19.4026C52.8354 19.0498 51.823 19.5385 51.4844 20.49" stroke="#3E3E40" stroke-width="2" stroke-miterlimit="10" stroke-linecap="round" stroke-linejoin="round"/>
<path d="M54.618 29.5576C54.7133 29.4132 54.8207 29.2768 54.9411 29.1514L56.2876 27.7475C56.8868 27.2407 57.4327 25.2754 57.4327 25.2754C57.761 24.3532 57.278 23.3284 56.354 22.9864C55.4302 22.6445 54.4152 23.1149 54.0869 24.0371" stroke="#3E3E40" stroke-width="2" stroke-miterlimit="10" stroke-linecap="round" stroke-linejoin="round"/>
<path d="M5.23806 22.9153C4.81209 20.9489 4.82193 19.2008 5.5799 18.0058C7.82943 14.4593 11.1522 9.52567 20.6401 9.90079C20.6401 9.90079 25.5401 11.1467 23.6531 19.4771C21.8496 27.439 22.154 30.9366 24.7701 39.5166C25.199 40.9229 25.4728 42.3088 25.764 43.5375C26.4587 46.4686 24.6945 49.4279 21.8291 50.1413C19.1408 50.8107 16.4079 49.2635 15.5357 46.5791C14.1163 42.2107 12.1322 37.2965 10.4339 34.5079C9.20955 32.4974 7.67556 29.725 6.54248 26.9524" stroke="#26AACC" stroke-width="2" stroke-miterlimit="10" stroke-linecap="round" stroke-linejoin="round"/>
<path d="M46.2786 47.1813C46.9217 45.9993 47.5575 44.9448 48.1585 44.1003C51.2395 39.7715 56.1701 31.6856 54.1799 27.9873C52.1897 24.2891 49.2282 19.1306 39.7379 18.8264C39.7379 18.8264 34.7613 19.7188 36.0479 28.1627C37.2774 36.2332 36.8164 39.6838 33.5935 48.0547C33.0653 49.4268 32.6929 50.7894 32.3146 51.9942C31.4122 54.8681 32.9603 57.946 35.7673 58.8625C38.4009 59.7224 41.2374 58.3745 42.2993 55.7594C42.9448 54.1697 43.6614 52.5122 44.4046 50.9206" stroke="#26AACC" stroke-width="2" stroke-miterlimit="10" stroke-linecap="round" stroke-linejoin="round"/>
</g>
<defs>
<clipPath id="clip0_730_148052">
<rect width="60" height="60" fill="white"/>
</clipPath>
</defs>
</svg>
